<svg width="74" height="76" viewBox="0 0 74 76" fill="none" xmlns="http://www.w3.org/2000/svg">
<g filter="url(#filter0_d_358_155)">
<path d="M31.0769 67.7388C21.9949 60.1045 15.2121 53.0141 10.7286 46.4676C6.24513 39.9211 4.00226 33.8605 4 28.2858C4 19.9272 6.72236 13.2681 12.1671 8.3086C17.6118 3.34912 23.9151 0.869385 31.0769 0.869385C38.241 0.869385 44.5454 3.34912 49.9902 8.3086C55.4349 13.2681 58.1561 19.9272 58.1538 28.2858L65.2615 21.2646L70 25.9454L54.7692 40.991L39.5385 25.9454L44.2769 21.2646L51.3846 28.2858C51.3846 22.2119 49.4238 17.239 45.5022 13.3673C41.5805 9.49554 36.7721 7.55855 31.0769 7.55632C25.3795 7.55632 20.5699 9.49331 16.6483 13.3673C12.7267 17.2412 10.767 22.2141 10.7692 28.2858C10.7692 32.2423 12.4333 36.7704 15.7615 41.8703C19.0897 46.9703 24.1949 52.6397 31.0769 58.8786C32.2051 57.8755 33.2487 56.9004 34.2077 55.953L37.0846 53.1111C36.8026 52.5539 36.5769 51.9554 36.4077 51.3157C36.2385 50.6759 36.1538 50.0206 36.1538 49.3497C36.1538 47.0093 36.9718 45.031 38.6077 43.415C40.2436 41.799 42.2462 40.991 44.6154 40.991C46.9846 40.991 48.9872 41.799 50.6231 43.415C52.259 45.031 53.0769 47.0093 53.0769 49.3497C53.0769 51.6901 52.259 53.6683 50.6231 55.2844C48.9872 56.9004 46.9846 57.7084 44.6154 57.7084C44.1641 57.7084 43.7546 57.6805 43.3868 57.6248C43.019 57.5691 42.6388 57.4855 42.2462 57.374C40.6103 59.0458 38.8751 60.7453 37.0406 62.4728C35.2062 64.2003 33.2183 65.9556 31.0769 67.7388Z" fill="url(#paint0_linear_358_155)"/>
</g>
<defs>
<filter id="filter0_d_358_155" x="0" y="0.869385" width="74" height="74.8694" filterUnits="userSpaceOnUse" color-interpolation-filters="sRGB">
<feFlood flood-opacity="0" result="BackgroundImageFix"/>
<feColorMatrix in="SourceAlpha" type="matrix" values="0 0 0 0 0 0 0 0 0 0 0 0 0 0 0 0 0 0 127 0" result="hardAlpha"/>
<feOffset dy="4"/>
<feGaussianBlur stdDeviation="2"/>
<feComposite in2="hardAlpha" operator="out"/>
<feColorMatrix type="matrix" values="0 0 0 0 0.0392157 0 0 0 0 0.152941 0 0 0 0 0.215686 0 0 0 0.5 0"/>
<feBlend mode="normal" in2="BackgroundImageFix" result="effect1_dropShadow_358_155"/>
<feBlend mode="normal" in="SourceGraphic" in2="effect1_dropShadow_358_155" result="shape"/>
</filter>
<linearGradient id="paint0_linear_358_155" x1="58.78" y1="33.756" x2="-7.90484" y2="45.5645" gradientUnits="userSpaceOnUse">
<stop stop-color="#D3A84C"/>
<stop offset="0.495356" stop-color="#FFD87C"/>
<stop offset="1" stop-color="#E6BE69"/>
</linearGradient>
</defs>
</svg>
