<svg width="201" height="56" viewBox="0 0 201 56" fill="none" xmlns="http://www.w3.org/2000/svg">
<path d="M29.4915 1.51868C30.9593 1.51868 31.6932 2.20431 31.6932 3.57766C31.6932 4.01036 31.6146 4.54758 31.4583 5.18827L30.4896 8.90385C30.1962 10.0295 29.8343 10.8249 29.4038 11.2868C28.9798 11.7415 28.3665 11.9693 27.5641 11.9693C26.8988 11.9693 26.3833 11.7718 26.0186 11.3767C25.6595 10.9733 25.3204 10.3472 25.0005 9.49646L24.3251 7.61724C24.1104 7.03508 23.8819 6.64001 23.6406 6.43097C23.3993 6.21462 23.0246 6.10593 22.5156 6.10593H21.5962L16.5075 26.5944C16.4298 26.9895 16.3905 27.3406 16.3905 27.6458C16.3905 28.0116 16.4362 28.3168 16.5276 28.5635C16.6189 28.8018 16.7588 29.0599 16.948 29.3359C17.1892 29.7686 17.3099 30.1229 17.3099 30.3988C17.3099 30.4584 17.2843 30.611 17.2322 30.8576C17.0951 31.2527 16.831 31.5433 16.4389 31.7304C16.0541 31.9091 15.503 31.999 14.7856 31.999H5.36307C4.80283 31.999 4.36872 31.8944 4.06164 31.6854C3.75548 31.4691 3.60194 31.1597 3.60194 30.7563C3.60194 30.5775 3.64124 30.3946 3.71984 30.2086C3.83042 29.9327 3.95746 29.7268 4.10094 29.593C4.25083 29.4508 4.47291 29.2763 4.76628 29.0673C5.16475 28.7913 5.49742 28.4851 5.76428 28.1496C6.03206 27.8141 6.26054 27.2957 6.44973 26.5944L11.4982 6.10593H10.5788C9.98478 6.10593 9.50223 6.21462 9.13026 6.43097C8.7583 6.64001 8.35708 7.03508 7.92662 7.61724L6.60601 9.49646C5.99276 10.3169 5.39963 10.9367 4.82569 11.3537C4.25083 11.7645 3.62844 11.9693 2.95671 11.9693C2.34347 11.9693 1.86366 11.7864 1.51819 11.4217C1.17273 11.0559 1 10.5521 1 9.91034C1 9.60515 1.03838 9.26861 1.11698 8.90385L2.15428 4.72944C2.36906 3.8724 2.61033 3.22335 2.87811 2.78333C3.14589 2.33496 3.527 2.01409 4.02326 1.82073C4.51861 1.61901 5.21958 1.51868 6.1262 1.51868H29.4915ZM47.3258 0.836182C50.6918 0.836182 53.3203 1.74548 55.2121 3.56617C57.1103 5.37849 58.059 7.99769 58.059 11.4217C58.059 13.0396 57.8469 14.7819 57.4238 16.6465C56.6214 20.0631 55.3784 22.9645 53.6959 25.3517C52.0124 27.7315 50.0064 29.5334 47.6777 30.7563C45.3563 31.9801 42.8312 32.5916 40.1049 32.5916C36.7655 32.5916 34.1462 31.6854 32.2479 29.8731C30.3561 28.0524 29.4102 25.4301 29.4102 22.0061C29.4102 20.4477 29.636 18.6605 30.0856 16.6465C30.8624 13.2528 32.0853 10.3734 33.755 8.00814C35.4247 5.63665 37.4143 3.84941 39.7238 2.64851C42.0388 1.44029 44.5731 0.836182 47.3258 0.836182ZM46.602 5.32309C45.7996 5.32309 45.0785 5.69204 44.4397 6.43097C43.7999 7.16155 43.1638 8.35931 42.5314 10.0222C41.9054 11.6861 41.23 13.998 40.5062 16.96C39.4433 21.2421 38.9114 24.1926 38.9114 25.8105C38.9114 26.7585 39.0585 27.4483 39.3519 27.881C39.6452 28.3064 40.1113 28.5185 40.7511 28.5185C41.5535 28.5185 42.2737 28.1454 42.9134 27.4002C43.5523 26.6466 44.1783 25.4457 44.7915 23.7965C45.4112 22.1482 46.0966 19.8698 46.846 16.96C47.8833 12.7448 48.4024 9.78388 48.4024 8.07503C48.4024 7.09779 48.2553 6.39753 47.9619 5.97215C47.6686 5.53945 47.2153 5.32309 46.602 5.32309ZM81.6711 7.70608C82.1737 5.59484 82.8848 4.00618 83.8042 2.93906C84.7309 1.87299 86.0095 1.33891 87.6399 1.33891C88.9249 1.33891 89.9521 1.8061 90.7216 2.73839C91.4985 3.67068 91.886 4.8235 91.886 6.19581C91.886 6.65046 91.8211 7.18454 91.6904 7.79597C91.397 9.13901 90.8752 10.1079 90.1249 10.7047C89.3745 11.3015 88.5593 11.6004 87.6792 11.6004C87.2223 11.6004 86.8146 11.5628 86.4555 11.4886C86.0972 11.4133 85.7581 11.313 85.4383 11.1865L83.0703 21.1334C82.2158 24.7737 80.7873 27.5486 78.7849 29.4582C76.7825 31.3687 74.0554 32.323 70.6053 32.323C67.4541 32.323 65.002 31.6373 63.2473 30.264C61.499 28.8844 60.6253 26.7438 60.6253 23.8414C60.6253 22.4315 60.84 20.8878 61.2705 19.2092L64.3139 6.87831C64.418 6.48323 64.4701 6.10279 64.4701 5.73698C64.4701 5.37117 64.4244 5.0733 64.333 4.84127C64.2417 4.61029 64.1146 4.34168 63.9519 4.03649C63.7107 3.64037 63.59 3.3195 63.59 3.07389C63.59 2.95474 63.6193 2.8011 63.6778 2.61506C63.7819 2.21999 64.0205 1.93988 64.3924 1.77579C64.7699 1.60438 65.3182 1.51868 66.0357 1.51868H75.4582C76.6061 1.51868 77.1801 1.91793 77.1801 2.7154C77.1801 2.89517 77.1673 3.04776 77.1408 3.17423C77.0631 3.44283 76.9488 3.66337 76.799 3.83477C76.6482 3.99887 76.427 4.18909 76.1336 4.40544C75.7096 4.68136 75.3632 4.9876 75.0963 5.32309C74.8285 5.65859 74.6001 6.177 74.4109 6.87831L70.9279 20.9097C70.6866 21.9465 70.566 22.8307 70.566 23.5613C70.566 25.613 71.5284 26.6393 73.4522 26.6393C74.6266 26.6393 75.6081 26.2024 76.3977 25.3297C77.1865 24.457 77.8491 22.9687 78.3837 20.8648L81.6711 7.70608ZM119.375 10.828C118.951 12.5964 118.149 13.9761 116.969 14.9679C115.794 15.9608 114.314 16.5796 112.526 16.8252C113.811 16.9527 114.773 17.3812 115.413 18.1128C116.052 18.8434 116.372 19.806 116.372 20.9996C116.372 21.4542 116.306 22.0176 116.176 22.6886L115.736 24.9378C115.677 25.244 115.647 25.4562 115.647 25.5764C115.647 25.9788 115.729 26.2808 115.892 26.4826C116.056 26.6759 116.283 26.7731 116.577 26.7731C117.138 26.7731 117.543 26.8661 117.79 27.0532C118.044 27.2319 118.133 27.5674 118.054 28.0597C117.95 28.761 117.63 29.4477 117.096 30.1187C116.561 30.7907 115.804 31.3499 114.825 31.7972C113.854 32.2373 112.673 32.4578 111.284 32.4578C109.523 32.4578 108.12 32.0063 107.076 31.1032C106.033 30.2013 105.511 28.9105 105.511 27.2319C105.511 26.5902 105.592 25.9046 105.756 25.173L106.392 22.2298C106.502 21.8347 106.558 21.425 106.558 20.9996C106.558 20.2983 106.349 19.7945 105.931 19.4893C105.521 19.1831 104.858 19.0305 103.945 19.0305H102.429L100.579 26.6393C100.527 26.8181 100.502 27.0459 100.502 27.3218C100.502 27.7462 100.593 28.112 100.775 28.4182C100.964 28.7234 101.222 29.0443 101.548 29.3808C101.783 29.5972 101.966 29.8051 102.096 30.0069C102.233 30.2013 102.302 30.4061 102.302 30.6225C102.302 31.1451 102.086 31.514 101.656 31.7304C101.232 31.9394 100.606 32.0439 99.7768 32.0439H89.7191C89.0272 32.0439 88.509 31.8976 88.1627 31.607C87.8108 31.3165 87.6902 30.913 87.8008 30.3988C87.8528 30.1229 87.9543 29.9023 88.1042 29.7383C88.2477 29.5669 88.4661 29.3724 88.7604 29.1561C89.2164 28.8509 89.5783 28.53 89.8461 28.1945C90.1139 27.859 90.325 27.3406 90.4822 26.6393L95.3744 6.87831C95.4786 6.48323 95.5307 6.10279 95.5307 5.73698C95.5307 5.40148 95.485 5.11824 95.3936 4.88621C95.3022 4.65523 95.1752 4.38662 95.0125 4.08039C94.7712 3.68531 94.6506 3.36445 94.6506 3.11883C94.6506 3.02895 94.6762 2.86068 94.7283 2.61506C94.8389 2.21999 95.0738 1.93988 95.4329 1.77579C95.7921 1.60438 96.3459 1.51868 97.0963 1.51868H110.521C112.366 1.51868 113.977 1.83955 115.354 2.48023C116.73 3.12197 117.784 4.002 118.514 5.12138C119.252 6.23344 119.62 7.49391 119.62 8.90385C119.62 9.54453 119.539 10.1863 119.375 10.828ZM109.122 10.3692C109.251 9.66055 109.317 9.12333 109.317 8.75857C109.317 7.1396 108.544 6.32959 106.998 6.32959H105.315L103.544 14.4422H105.227C106.271 14.4422 107.093 14.1516 107.693 13.5695C108.299 12.9873 108.775 11.9213 109.122 10.3692Z" fill="#FFA236" fill-opacity="0.75" stroke="#FFA236"/>
<path d="M137.444 30.1911C136.973 24.986 131.734 21.9746 125.585 22.4963C114.993 23.3952 110.2 30.3384 111.274 39.3644C111.333 39.8585 111.865 40.188 112.402 40.1429C112.89 40.1012 113.441 39.763 113.372 39.1862C112.66 30.7122 116.42 25.0229 125.741 24.2316C130.72 23.8094 135.045 26.1901 135.384 30.2826C135.684 32.7971 134.06 35.7237 131.196 37.3406C129.526 36.5668 126.876 36.2501 125.07 36.4034C123.508 36.5359 122.616 37.3191 122.773 38.6382C122.984 40.4105 124.78 40.5914 126.975 40.4051C128.147 40.3056 130.158 39.802 131.187 39.3395C133.453 40.5631 134.874 42.9822 135.159 45.3723C135.673 49.7001 132.869 53.4765 127.452 53.9364C124.182 54.2134 120.931 53.4073 120.627 50.8517C120.455 49.4089 121.665 47.9742 123.324 47.8337C124.447 47.7382 125.667 48.4677 126.361 49.7404C126.552 50.0994 126.967 50.2722 127.406 50.2346C128.187 50.1687 128.553 49.5131 128.245 48.9981C127.136 47.1358 125.315 45.9162 123.07 46.1065C120.483 46.3263 118.268 48.4294 118.577 51.0259C118.979 54.405 122.777 56.0811 127.658 55.667C134.002 55.1291 137.899 50.5936 137.267 45.2768C136.997 43.0097 135.942 40.7682 134.072 39.1364L133.09 38.3458C135.959 36.3537 137.798 33.1588 137.444 30.1911ZM124.158 29.1537C124.577 28.119 125.768 26.9357 126.87 26.6755C127.251 26.5599 127.656 26.2345 127.582 25.6159C127.431 25.1708 126.957 24.9194 126.469 24.9611C124.908 25.0935 123.039 26.7925 122.206 28.4868C121.109 30.8695 120.349 34.0146 119.604 37.2835C118.075 43.9079 116.362 52.2959 109.432 52.8842C106.698 53.1161 104.248 51.992 103.944 49.4365C103.655 47.0047 105.747 44.2878 108.382 44.0639C108.675 44.0391 108.919 44.0182 109.173 44.0801C109.876 44.187 110.456 43.68 110.388 43.1032C110.343 42.732 110.016 42.4685 109.557 42.3407C109.049 42.217 108.611 42.2547 108.123 42.2957C104.462 42.6063 101.477 46.1071 101.904 49.6927C102.301 53.0314 105.684 54.9503 109.686 54.6107C117.836 53.9196 119.755 45.5968 121.615 37.6123C122.375 34.4671 123.095 31.4087 124.158 29.1537ZM127.014 38.653C126.282 38.7149 124.866 38.8352 124.827 38.5058C124.793 38.2174 125.081 38.1508 125.472 38.1179C125.91 38.0809 127.999 38.2362 128.507 38.3599C128.029 38.4836 127.551 38.6073 127.014 38.653Z" fill="#117454"/>
<path d="M162.579 41.3386C162.804 40.7368 162.193 40.164 161.461 40.2259C161.07 40.2595 160.705 40.4988 160.597 40.8404C159.297 44.4064 157.774 46.1175 155.724 46.2916C154.602 46.3864 153.738 46.1686 153.133 45.6374C154.995 42.2321 156.076 38.0603 155.767 35.4638C155.473 32.9909 153.593 31.2772 150.362 31.4681C147.922 31.6752 145.702 33.3204 143.995 36.3795C142.65 38.7414 140.587 42.9548 141.156 47.7358C141.441 50.1266 142.725 51.8074 145.897 51.5384C148.24 51.3394 150.529 49.4381 152.089 47.2241C153.251 47.8749 154.564 48.1385 155.93 48.0222C158.859 47.7741 160.927 45.6838 162.579 41.3386ZM151.115 41.1039C150.626 41.1456 150.216 41.43 150.168 41.8502C149.949 42.9098 150.067 44.7318 150.732 45.7578C149.351 47.8312 147.498 49.6539 145.692 49.8072C144.13 49.9397 143.421 48.9587 143.245 47.4756C142.74 43.2298 144.851 39.013 145.909 37.1332C147.08 34.9521 148.665 33.3607 150.519 33.2034C152.179 33.0622 153.507 33.8656 153.712 35.5962C153.938 37.4922 153.349 40.4148 152.14 43.0987C152.155 42.8063 152.115 42.4761 152.223 42.1339C152.349 41.5403 151.798 41.0461 151.115 41.1039Z" fill="#117454"/>
<path d="M181.661 39.7194C181.885 39.1177 181.275 38.5449 180.543 38.6067C180.152 38.6403 179.787 38.8797 179.679 39.2212C178.378 42.7873 176.856 44.4983 174.806 44.6725C173.683 44.7673 172.82 44.5494 172.215 44.0183C174.077 40.6129 175.158 36.4412 174.849 33.8446C174.555 31.3718 172.675 29.658 169.444 29.849C167.004 30.0561 164.784 31.7012 163.077 34.7603C161.732 37.1222 159.669 41.3357 160.238 46.1166C160.522 48.5074 161.807 50.1882 164.979 49.9193C167.322 49.7203 169.61 47.819 171.171 45.605C172.332 46.2558 173.646 46.5193 175.012 46.403C177.94 46.1549 180.009 44.0647 181.661 39.7194ZM170.196 39.4848C169.708 39.5265 169.298 39.8109 169.25 40.2311C169.031 41.2907 169.149 43.1127 169.813 44.1386C168.433 46.2121 166.579 48.0348 164.774 48.1881C163.212 48.3205 162.503 47.3396 162.327 45.8564C161.822 41.6107 163.933 37.3938 164.991 35.514C166.161 33.333 167.747 31.7416 169.601 31.5843C171.261 31.4431 172.589 32.2465 172.794 33.9771C173.02 35.873 172.431 38.7956 171.222 41.4796C171.237 41.1871 171.197 40.857 171.305 40.5148C171.431 39.9211 170.879 39.427 170.196 39.4848Z" fill="#117454"/>
<path d="M179.156 48.092C181.538 40.3548 183.628 33.058 186.672 22.6006C186.853 22.044 186.291 21.4671 185.511 21.533C185.12 21.5666 184.754 21.806 184.647 22.1475C184.369 23.1291 183.01 27.865 177.14 47.7215C176.998 48.1915 177.35 48.6614 177.907 48.7804C178.458 48.8591 179.009 48.5209 179.156 48.092ZM200.269 37.0167C200.118 36.9878 199.966 36.9589 199.82 36.9717C199.429 37.0046 199.112 37.2399 198.956 37.5862C197.523 41.288 195.666 45.5667 192.787 45.8114C191.762 45.8982 191.132 45.1606 191.043 44.419C190.931 43.4711 191.09 40.2519 190.977 39.304C190.718 37.5357 189.917 36.1884 187.583 36.0533L194.988 29.0967C195.164 28.9158 195.286 28.6973 195.256 28.4499C195.217 28.1198 194.811 27.6135 194.08 27.6754C193.835 27.6962 193.69 27.7083 193.421 27.9396C187.528 33.5186 183.435 37.2379 182.864 37.8275C182.206 38.5079 182.558 39.3941 183.632 39.3026C184.559 39.224 185.144 37.9257 186.559 37.8053C188.218 37.6648 188.751 38.4104 188.927 39.4781C189.065 40.2156 189.021 41.0937 188.972 41.9301C188.939 42.8908 188.901 43.8099 189.008 44.7162C189.195 46.2827 190.748 47.7329 192.993 47.542C197.044 47.1984 199.125 42.7342 200.943 38.1254C200.977 37.9976 201.011 37.8699 200.997 37.7462C200.958 37.4161 200.674 37.1075 200.269 37.0167Z" fill="#117454"/>
</svg>
